<svg xmlns="http://www.w3.org/2000/svg" width="1024" height="1024" viewBox="0 0 270.933 270.933"><path d="M267.758 135.467a132.292 132.292 0 01-132.291 132.291A132.292 132.292 0 013.175 135.467 132.292 132.292 0 01135.467 3.175a132.292 132.292 0 01132.291 132.292z" fill="#fff"/><path d="M270.933 135.467a135.467 135.467 0 01-135.466 135.466A135.467 135.467 0 010 135.467 135.467 135.467 0 01135.467 0a135.467 135.467 0 01135.466 135.467z" fill="#fff"/><path d="M45.851 69.171c-7.13 0-25.296 1.76-25.296 67.466 0 47.653 20.997 100.77 114.747 100.77 81.888 0 116.568-41.017 116.568-99.868 0-54.324-15.413-68.297-27.455-68.297-17.476 0-49.314 36.768-49.314 54.052 0 4.33 37.02 78.477-39.81 78.477-75.934-1.553-39.804-73.788-39.804-78.51 0-15.898-29.695-54.09-49.636-54.09zm7.305 20.907c6.778 0 12.274 5.495 12.274 12.273 0 6.779-5.496 12.275-12.274 12.275-6.778 0-12.274-5.496-12.274-12.275 0-6.778 5.496-12.273 12.274-12.273zm166.084.023c6.778 0 12.274 5.496 12.274 12.274 0 6.779-5.496 12.275-12.274 12.275-6.779 0-12.274-5.496-12.274-12.275 0-6.778 5.495-12.274 12.274-12.274zm-83.202 40.358c-19.132 0-31.126 36.1-31.126 36.1s17.785 17.856 30.361 17.856c12.776 0 30.397-19.084 30.397-19.084s-10.406-34.872-29.632-34.872zm124.41 4.884a125.008 125.008 0 01-125.01 125.007A125.008 125.008 0 0110.431 135.343 125.008 125.008 0 01135.44 10.335a125.008 125.008 0 01125.008 125.008z"/><path d="M267.758 135.467a132.292 132.292 0 01-132.291 132.291A132.292 132.292 0 013.175 135.467 132.292 132.292 0 01135.467 3.175a132.292 132.292 0 01132.291 132.292z" fill="none"/></svg>