<svg xmlns="http://www.w3.org/2000/svg" width="512" height="512" viewBox="0 0 135.467 135.467"><defs><filter id="a" color-interpolation-filters="sRGB"><feFlood flood-opacity="1" flood-color="#000" result="flood"/><feComposite in="flood" in2="SourceGraphic" operator="in" result="composite1"/><feGaussianBlur in="composite1" stdDeviation="2" result="blur"/><feOffset dy="1" result="offset"/><feComposite in="SourceGraphic" in2="offset" result="composite2"/></filter></defs><path d="M69.14 162.893c-30.832 3.578-35.642 27.692-42.467 43.761-3.383 7.968-4.907 8.072-11.405 16.984-5.589 7.664-12.242 18.18-10.544 26.47 1.968 5.918 8.2 4.701 13.441 3.08 2.055 5.28 4.228 10.424 8.87 14.537-4.368.946-8.925 5.988-4.585 9.875 7.44 4.715 20.952 5.824 27.814 3.115 14.228 2.539 27.362 1.884 40.094-1.497 8.01.338 22.038 1.409 25.56-4.643 2.469-4.244-2.23-7.046-5.503-8.448 4.05-5.317 6.692-11.058 7.035-17.72 5.422.182 10.722-4.917 9.025-10.722-3.242-11.093-8.967-18.315-11.327-28.239-3.145-13.225-7.238-27.174-18.142-36.26-7.781-6.482-17.718-11.471-27.866-10.293z" fill="#fff" filter="url(#a)" transform="translate(0 -161.533)"/><path d="M70.547 4.41c-14.826.087-30.697 9.83-39.132 35.519-2.132 6.491-4.889 12.683-9.18 17.975-9.508 11.73-12.679 15.953-14.943 24.528-.449 1.697-1.368 8.015 3.956 7.737 7.802-.408 24.82-10.466 27.26-11.716.26-.133.57-.015.243.283-1.602 1.464-14.917 8.816-16.97 9.912-1.42.758-1.195 1.511-.916 2.209 1.805 4.52 3.52 10.149 10.612 15.6.305.234.704.504.669.706-.084.476-1.245.806-2.106 1.067-21.228 6.431 14.817 13.048 19.892 8.205 12.694 2.053 27.569 2.508 40.391-1.662 14.533 1.206 34.497-1.105 16.212-9.462 5.031-5.852 8.746-13.34 8.806-19.847.003-.265.053-1.026.68-1.048 12.691-.454 8.041-9.467 3.912-17.35-3.527-6.733-5.487-13.061-7.234-18.092-1.966-5.663-3.04-15.111-8.119-23.77C97.475 13.087 84.475 4.327 70.547 4.41zm-5.905 22.893c9.88 0 17.89 6.748 17.89 15.071 0 8.324-8.01 15.072-17.89 15.072s-17.891-6.748-17.89-15.072c0-8.323 8.01-15.07 17.89-15.07zm.05 1.906c-5.659-.048-11.514 2.566-15.067 9.083-.516 1.434.463 2.183 1.123 2.695.68.376 1.879 1.512 1.879 1.512s-1.011.741-.977 2.322c.02.99 1.044 2.094 2.126 2.253 1.13.166 2.33-.426 2.76-1.307.477-.982.246-1.966.246-1.966s16.308 2.883 22.66.963c.97-.291 1.024-.762 1.014-2.157.36-7.57-7.493-13.327-15.764-13.398zm37.55 8.91c3.554 0 6.434 2.663 6.434 5.947 0 3.284-2.88 5.946-6.433 5.946s-6.434-2.662-6.434-5.946 2.88-5.947 6.434-5.946zm-.188 2.022c-1.283-.066-3.916 1.03-4.44 3.087-.153.595.268.865 1.921.97 0 0-.197.55-.006 1.014.199.482.713.795 1.135.802.482.009 1.057-.236 1.245-.667.22-.505.18-.888.18-.888.473-.149 3.104-.279 4.56-.782.345-.12.242-.536.187-.65-.358-.734-1.06-2.692-4.782-2.886zM91.196 52.666c1.623.17 4.534 2.361 6.342 4.487 1.325 1.56 4.636 4.013 5.343 4.58.552.442.595 1.701.19 2.502-1.354 2.69-3.358 5.98-8.398 9.084-.883.544-1.67.76-2.62.157-5.833-3.692-11.716-4.304-21.035-8.493-.966-.435-1.468-.966-.613-1.684 1.908-1.602 7.275-4.223 9.308-5.361 3.318-1.859 7.357-5.707 11.483-5.272zm13.728 14.446c3.922 2.493 9.017 9.307 8.804 18.262-.075 3.146-2.142 12.596-9.225 19.376-15.86 15.183-51.366 14.554-65.915 5.117-2.145-1.594-4.72-4.123-4.179-7.916C37.024 83.619 55.8 71.176 72.607 67.948c3.884.036 14.152 3.87 17.85 6.05 1.764 1.04 2.677 1.802 4.532.67 2.284-1.394 5.297-3.717 7.44-7.266 1.09-1.806 1.588-.868 2.495-.29z" fill="#222"/></svg>