<svg xmlns="http://www.w3.org/2000/svg" width="55" height="12" viewBox="0 0 14.552 3.175"><g stroke-width=".046"><path d="M5.291 2.91h-.264v-.264h.264V2.38h-.529v.265H3.704V2.38H3.44v-.264h-.265v.264h-.264v.265h-.794V2.38h-.265v-.264h-.265v-.53h-.264v.265H.794v.53H.53v.264H.265V2.38H0V.53h.265V.264h1.058V.53h.264v.265h.265v.264h.265V.794h.794v.265h.528V.794h.265v.265h.265v.794h.264V1.06h.265V.794h.264v.265h.265V.794h.264v.265h.265v.794h.265V1.06h.265V.794h.264v.265h.53V.794h.793v.265h.265V.794h.264V.53h.265V.264h.793V.53h.265v.265h.265v.264h.264V.794h.794v.265h.264v.264h.265V1.06h.265V.794h.529v-.53h.264V0h.265v.264h.264v.795h.265V.794h.794v.264h.264v.265h.265v.529h-.265v.265h.265v.264h-.265v.265H13.23V2.38h-.53v.265h-1.057V2.38h-.265v-.264h-.265v.264h-.264v.265h-.794V2.38H9.79v-.264h-.265v.264H9.26v.265h-.794V2.38h-.528v.265H6.879V2.38h-.264v.265H6.35v.264h-.264v.265H5.29zM6.88 1.852h-.264v.265h.264zm2.381 0v-.265h.265v-.264h.265v-.265h-.265v.265H9.26v-.265h-.529v.795zm-6.614-.265H2.38v.265h.265zm7.937 0h-.264v.265h.264zm1.588 0h-.265v.265h.265zm-5.292-.264h-.265v.264h.265z"/><path d="M5.291 2.91h.795v-.529H5.29V1.058h-.264v1.059h1.059V1.058h.264v1.588H5.291zM.265.53h1.058v1.057H.529v.795H.265zm1.322.264H.53v.529h1.058zm.265 1.323v-.794h1.323v.794zM2.91 1.058h-.793v1.323h.794zm.795 0h-.266v1.059h1.059V1.058h.264v1.323H3.704zm3.174.53h.794v-.53H6.88v.265h1.059V2.38H6.879zm.794.264H6.615v.265h1.058zm.794.265h-.265V.794h.265V.53h.793v.265h.265v.264H9.26V.794h-.794v1.323h1.059v-.264H9.26v.529h-.794zm1.323 0v-.794h1.322v.794zm1.058-1.059h-.794v1.323h.794zm.794 0h.793V.264h.265v2.117h-1.058zm.793.265h-1.058v.794h1.058zm1.852.794h-1.323v-.794h1.323v.529H13.23v.53h1.058zm-.264-1.059h-.794v.53h.794z" fill="#0a0"/></g></svg>